:SAMPLES-PER-SECOND 24
:FULLY-SPECIFIED
:DEGREES
98
root  2.3834 40.5259 30.7728 176.66 -69.5575 177.734
RightUpLeg  -5.20541 -17.9474 -20.1543
RightLeg  15.7488 10.9953 3.31656
RightFoot  9.89308 -3.10549 16.7833
RightToes  -1.74623e-010 0 -2.59999e-017
Spine  -0.240703 -5.77857 -13.1742
Spine1  15.7217 -8.80813 7.22788
HEad  -13.5556 -34.0762 12.4667
LeftShoulder1  1.78705 -2.99472 -21.1092
LeftArm  10.3657 23.1525 -47.0756
LeftForeArm  121.374 -78.4035 -120.386
LeftHand  0.17953 7.93703 9.50831
RightShoulder  2.7335 4.60692 27.7448
RightArm  -10.3768 -35.5763 30.3261
RightForeArm  34.2074 69.0526 26.8216
RightHand  -0.694565 -9.12386 18.8913
LeftUpLeg  9.85936 26.0717 18.6721
LeftLeg  18.2678 18.4932 3.94932
LeftFoot  8.72686 1.67836 -9.8125
LeftToes  -6.27559e-011 -2.10356e-011 8.24929e-012
99
root  2.60327 39.413 30.8023 177.458 -70.0329 178.292
RightUpLeg  -9.96122 -16.5229 -20.0257
RightLeg  18.6413 10.9358 3.86983
RightFoot  9.63779 -3.611 19.7253
RightToes  -1.74623e-010 0 -2.59999e-017
Spine  2.63244 -6.00228 -15.0027
Spine1  10.9527 -9.79702 9.96199
HEad  -13.1985 -31.4932 9.98979
LeftShoulder1  1.67572 -2.77058 -20.2751
LeftArm  10.8492 19.6852 -45.3756
LeftForeArm  111.271 -79.0769 -112.322
LeftHand  0.131677 7.3355 9.39217
RightShoulder  2.80468 4.79417 27.8433
RightArm  -9.06373 -34.9656 24.5671
RightForeArm  42.2592 73.3969 35.4915
RightHand  -0.701126 -10.7831 13.2565
LeftUpLeg  7.66621 35.1469 21.5716
LeftLeg  23.6389 8.0919 3.40368
LeftFoot  1.36112 1.85387 -17.1267
LeftToes  -6.27559e-011 -2.10356e-011 8.24929e-012
100
root  2.98259 37.78 30.6009 177.001 -73.4535 179.63
RightUpLeg  -14.136 -14.0567 -20.7369
RightLeg  28.4994 10.551 5.96484
RightFoot  1.37505 -2.22215 19.7615
RightToes  -1.74623e-010 0 -2.59999e-017
Spine  5.06354 -6.51104 -17.609
Spine1  9.6925 -11.5319 12.8645
HEad  -14.3832 -27.5041 7.85976
LeftShoulder1  1.85659 -2.93548 -22.5227
LeftArm  11.4741 9.81248 -38.3645
LeftForeArm  94.2333 -79.6466 -98.3215
LeftHand  0.0601371 6.66328 7.86015
RightShoulder  2.95224 5.01102 28.7394
RightArm  -9.27258 -31.5284 20.6222
RightForeArm  55.7966 77.1359 49.2306
RightHand  -0.365184 -12.9569 4.35537
LeftUpLeg  1.54242 36.0137 23.0211
LeftLeg  33.6082 -0.129586 0.286513
LeftFoot  -9.84007 0.336443 -20.8984
LeftToes  -6.27559e-011 -2.10356e-011 8.24929e-012
101
root  3.40496 36.2703 30.0638 176.732 -80.2903 -179.689
RightUpLeg  -16.3981 -14.4205 -22.0114
RightLeg  39.5318 9.28121 7.87382
RightFoot  -9.20867 -0.445702 20.3529
RightToes  -1.74623e-010 0 -2.59999e-017
Spine  6.50826 -7.12737 -19.4688
Spine1  10.6863 -12.9358 13.1843
HEad  -14.2518 -21.9859 5.60903
LeftShoulder1  2.1288 -3.3584 -24.835
LeftArm  9.99138 -1.74156 -34.1078
LeftForeArm  60.2744 -78.5682 -63.3645
LeftHand  0.0848697 6.78264 9.15181
RightShoulder  3.08719 5.14765 29.7767
RightArm  -10.6821 -27.0522 21.229
RightForeArm  76.7236 79.5253 66.8122
RightHand  0.0137809 -13.9356 -1.18299
LeftUpLeg  -7.0631 31.5182 22.2274
LeftLeg  42.841 -2.56146 -2.10899
LeftFoot  -15.1723 -0.6022 -20.5093
LeftToes  -6.27559e-011 -2.10356e-011 8.24929e-012
102
root  3.71111 35.4363 29.0904 174.491 -89.2039 -177.032
RightUpLeg  -17.5032 -13.7974 -21.7602
RightLeg  48.2454 5.52627 6.27577
RightFoot  -13.7098 0.366625 22.1872
RightToes  -1.74623e-010 0 -2.59999e-017
Spine  7.0612 -7.19251 -18.7761
Spine1  11.2676 -12.6071 10.9324
HEad  -12.2075 -13.8548 1.96066
LeftShoulder1  2.19962 -3.64184 -24.5874
LeftArm  7.61691 -5.51407 -38.7206
LeftForeArm  46.1633 -75.9064 -44.6753
LeftHand  0.272742 7.67528 14.8799
RightShoulder  3.1764 5.25001 30.3894
RightArm  -11.1989 -23.1697 25.2259
RightForeArm  99.4814 80.4536 87.3485
RightHand  0.209545 -12.6681 -4.30145
LeftUpLeg  -14.67 24.2248 21.1648
LeftLeg  46.8381 -2.2902 -2.1619
LeftFoot  -16.3783 -0.839508 -21.0758
LeftToes  -6.27559e-011 -2.10356e-011 8.24929e-012
103
root  3.76631 35.5326 27.4858 11.6675 -79.7909 -13.7645
RightUpLeg  -15.8042 -8.61847 -18.505
RightLeg  51.7515 3.51549 4.47029
RightFoot  -14.6906 0.54156 21.6162
RightToes  -1.74623e-010 0 -2.59999e-017
Spine  6.80041 -6.11036 -16.2355
Spine1  11.9371 -10.6236 8.68526
HEad  -10.0683 -3.10973 -2.46833
LeftShoulder1  2.27534 -3.81722 -24.895
LeftArm  7.9027 -2.47059 -43.7952
LeftForeArm  51.8138 -77.0545 -50.6406
LeftHand  0.291382 7.48143 16.8201
RightShoulder  3.25778 5.39771 30.7057
RightArm  -8.68131 -20.7001 30.1221
RightForeArm  117.783 80.1785 104.931
RightHand  0.343222 -10.312 -9.07
LeftUpLeg  -19.3052 15.3113 22.3314
LeftLeg  43.3311 -3.4854 -3.05236
LeftFoot  -12.71 -0.196011 -22.5393
LeftToes  -6.27559e-011 -2.10356e-011 8.24929e-012
104
root  3.5558 36.3069 25.3337 5.80945 -64.1758 -6.21216
RightUpLeg  -10.6713 -3.22163 -14.4052
RightLeg  48.1191 5.19676 5.83664
RightFoot  -17.8433 0.904776 18.015
RightToes  -1.74623e-010 0 -2.59999e-017
Spine  6.87324 -4.7607 -14.4281
Spine1  11.6639 -8.34091 6.95148
HEad  -8.08327 7.93032 -6.15369
LeftShoulder1  2.49673 -4.18801 -26.3319
LeftArm  12.6461 -0.94218 -43.6643
LeftForeArm  51.048 -77.3853 -53.6923
LeftHand  0.128446 6.8233 12.2537
RightShoulder  3.35125 5.54919 31.1295
RightArm  -3.69746 -20.078 32.4947
RightForeArm  124.852 79.9061 110.907
RightHand  0.112391 -6.49405 -14.3392
LeftUpLeg  -24.6297 4.92081 23.2361
LeftLeg  31.9785 -5.90752 -3.57542
LeftFoot  -0.43413 2.30872 -23.7252
LeftToes  -6.27559e-011 -2.10356e-011 8.24929e-012
105
root  3.3348 36.9739 23.1802 4.89612 -44.7072 -1.52246
RightUpLeg  -5.45168 -4.6955 -11.7009
RightLeg  40.6254 7.04547 6.16784
RightFoot  -22.3609 1.29511 14.9304
RightToes  -1.74623e-010 0 -2.59999e-017
Spine  8.44082 -3.96498 -10.9291
Spine1  9.72463 -6.12558 3.22782
HEad  -6.78583 17.9591 -10.0263
LeftShoulder1  2.5431 -4.49572 -25.6445
LeftArm  17.8065 -3.78365 -44.0981
LeftForeArm  42.1602 -75.8125 -45.8858
LeftHand  0.11095 6.74117 11.3937
RightShoulder  3.38408 5.65869 31.0441
RightArm  1.29434 -20.133 28.7682
RightForeArm  123.174 79.5884 112.851
RightHand  -0.651532 -1.0647 -17.4041
LeftUpLeg  -32.403 -0.154951 19.4531
LeftLeg  19.8097 -6.80472 -2.36381
LeftFoot  12.7232 4.97526 -23.4238
LeftToes  -6.27559e-011 -2.10356e-011 8.24929e-012
106
root  3.31956 37.4239 21.1374 6.64606 -27.8714 0.930481
RightUpLeg  -3.3569 -13.1616 -8.74203
RightLeg  33.0612 4.77868 3.13837
RightFoot  -24.9961 1.31506 12.3589
RightToes  -1.74623e-010 0 -2.59999e-017
Spine  10.3247 -2.79478 -3.38054
Spine1  9.1253 -2.88321 -2.57247
HEad  -7.93194 27.4075 -16.5624
LeftShoulder1  2.34433 -4.35494 -23.5847
LeftArm  20.608 -9.95817 -47.7573
LeftForeArm  37.9742 -75.1221 -43.561
LeftHand  0.194643 6.87965 16.3688
RightShoulder  3.2403 5.69496 29.3026
RightArm  3.56985 -20.5401 21.7468
RightForeArm  119.148 79.2555 114.206
RightHand  -1.30349 2.74794 -18.6865
LeftUpLeg  -40.6842 4.43768 8.88177
LeftLeg  20.9927 -9.63488 -3.79975
LeftFoot  13.8506 4.96887 -22.4043
LeftToes  -6.27559e-011 -2.10356e-011 8.24929e-012
107
root  3.21017 37.8625 18.9866 9.88751 -15.9496 2.6795
RightUpLeg  -6.43389 -23.0575 -4.45496
RightLeg  27.7406 -0.884738 -0.733418
RightFoot  -25.84 0.988511 9.13278
RightToes  -1.74623e-010 0 -2.59999e-017
Spine  12.365 -1.19001 2.47856
Spine1  9.88665 0.541582 -6.83403
HEad  -12.1896 37.9533 -25.1921
LeftShoulder1  2.08505 -3.93537 -21.6775
LeftArm  20.928 -15.4241 -53.5469
LeftForeArm  38.1388 -75.6455 -46.3856
LeftHand  0.276911 7.04675 19.9282
RightShoulder  3.04691 5.63462 27.361
RightArm  2.02954 -19.3482 17.0963
RightForeArm  79.6447 79.6957 75.3911
RightHand  -1.63671 4.22567 -19.8497
LeftUpLeg  -49.272 7.95662 -0.124743
LeftLeg  37.6633 -12.2004 -9.75629
LeftFoot  6.77994 3.9791 -24.9136
LeftToes  -6.27559e-011 -2.10356e-011 8.24929e-012
